<?xml version="1.0" encoding="utf-8"?>
<!-- Generator: Adobe Illustrator 16.0.0, SVG Export Plug-In . SVG Version: 6.00 Build 0)  -->
<!DOCTYPE svg PUBLIC "-//W3C//DTD SVG 1.0//EN" "http://www.w3.org/TR/2001/REC-SVG-20010904/DTD/svg10.dtd">
<svg version="1.0" id="Layer_1" xmlns="http://www.w3.org/2000/svg" xmlns:xlink="http://www.w3.org/1999/xlink" x="0px" y="0px"
	 width="960px" height="560px" viewBox="0 0 960 560" enable-background="new 0 0 960 560" xml:space="preserve">
<rect x="-0.5" y="0.5" display="none" fill="#333333" stroke="#000000" stroke-miterlimit="10" width="960" height="560"/>
<g>
	<g>
		<path fill="#00C695" d="M279.595,261.398h177.307v241.9c-29.002,9.449-56.852,16.147-83.544,20.104
			c-26.697,3.955-55.533,5.932-86.512,5.932c-72.947,0-129.187-21.585-168.734-64.76C78.563,421.402,58.79,360.489,58.79,281.83
			c0-77.555,22.294-138.251,66.899-182.085c44.599-43.83,106.006-65.747,184.226-65.747c50.311,0,97.989,9.67,143.03,29.001
			l-27.684,65.583c-39.109-18.013-78.219-27.024-117.324-27.024c-51.413,0-92.063,16.148-121.937,48.446
			c-29.882,32.298-44.821,76.459-44.821,132.485c0,58.884,13.452,103.647,40.37,134.299c26.909,30.648,65.634,45.973,116.17,45.973
			c25.484,0,52.73-3.183,81.732-9.557V328.958h-99.859V261.398z"/>
	</g>
</g>
<g>
	<g>
		<path fill="#FFFFFF" d="M721.17,261.398h177.305v241.9c-29.002,9.449-56.851,16.147-83.543,20.104
			c-26.698,3.955-55.531,5.932-86.513,5.932c-72.946,0-129.187-21.585-168.732-64.76c-39.548-43.171-59.323-104.084-59.323-182.743
			c0-77.555,22.295-138.251,66.899-182.085c44.6-43.83,106.006-65.747,184.226-65.747c50.311,0,97.99,9.67,143.031,29.001
			l-27.683,65.583c-39.111-18.013-78.22-27.024-117.324-27.024c-51.413,0-92.063,16.148-121.937,48.446
			c-29.883,32.298-44.821,76.459-44.821,132.485c0,58.884,13.452,103.647,40.37,134.299c26.908,30.648,65.634,45.973,116.171,45.973
			c25.484,0,52.729-3.183,81.731-9.557V328.958H721.17V261.398z"/>
	</g>
</g>
</svg>
